<svg width="32" height="32" viewBox="0 0 32 32" fill="none" xmlns="http://www.w3.org/2000/svg">
<rect x="15.6099" width="7.02439" height="32" fill="#3C413C"/>
<path d="M16 0C11.7565 0 7.68687 1.68571 4.68629 4.68629C1.68571 7.68687 3.20373e-07 11.7565 0 16C-3.20373e-07 20.2435 1.68571 24.3131 4.68629 27.3137C7.68687 30.3143 11.7565 32 16 32L16 16L16 0Z" fill="#3C413C"/>
<g clip-path="url(#clip0_36_1127)">
<path d="M10.3823 16.8265C10.0333 16.487 10.0243 15.9268 10.3621 15.5763L15.552 10.1923C15.8899 9.84183 16.4477 9.83284 16.7967 10.1723C17.1457 10.5117 17.1547 11.072 16.8168 11.4225L12.2378 16.1727L16.9649 20.7728C17.3139 21.1123 17.3229 21.6725 16.985 22.0231C16.6471 22.3736 16.0894 22.3826 15.7404 22.0431L10.3796 16.8293L10.3823 16.8265Z" fill="white"/>
</g>
<defs>
<clipPath id="clip0_36_1127">
<rect width="8.79336" height="14.1322" fill="white" transform="translate(19.02 23.1304) rotate(179.076)"/>
</clipPath>
</defs>
</svg>
