<svg class="svg-icon" style="width: 1em;height: 1em;vertical-align: middle;fill: currentColor;overflow: hidden;" viewBox="0 0 1024 1024" version="1.1" xmlns="http://www.w3.org/2000/svg"><path d="M925.416149 3.180124h-190.807453a31.801242 31.801242 0 0 0-31.801243 31.801242v387.021118L121.798758 10.176398 110.668323 2.544099A31.801242 31.801242 0 0 0 98.583851 0a31.801242 31.801242 0 0 0-31.801242 31.801242v960.397516a31.801242 31.801242 0 0 0 31.801242 31.801242 31.801242 31.801242 0 0 0 12.084472-2.544099l11.130435-7.632299L702.807453 601.997516V989.018634a31.801242 31.801242 0 0 0 31.801243 31.801242h190.807453a31.801242 31.801242 0 0 0 31.801242-31.801242v-954.037268a31.801242 31.801242 0 0 0-31.801242-31.801242z"  /></svg>