<svg xmlns="http://www.w3.org/2000/svg" viewBox="0 0 23 30">
<!--! Font Awesome Pro 6.4.2 by @fontawesome - https://fontawesome.com License - https://fontawesome.com/license (Commercial License) Copyright 2023 Fonticons, Inc. -->
<g id="person-icon">
<path id="Vector" d="M18.134 7.51013C18.134 3.6248 15.1666 0.474609 11.4996 0.474609C7.83581 0.474609 4.86523 3.6248 4.86523 7.51013C4.86523 11.3955 7.83581 14.5457 11.4996 14.5457C15.1667 14.5457 18.134 11.3955 18.134 7.51013ZM6.52375 7.66234C6.52375 7.66234 6.33242 5.66668 7.68796 4.14456C8.64203 5.15876 11.4996 7.66234 16.4755 7.66234C16.4755 10.5722 14.2434 12.9391 11.4996 12.9391C8.75583 12.9391 6.52375 10.572 6.52375 7.66234Z" />
<path id="Vector_2" d="M0.113281 19.9576V23.0695V27.0946C0.113281 28.2071 0.963974 29.1071 2.01106 29.1071H20.9893C22.0384 29.1071 22.8871 28.2069 22.8871 27.0946V23.0695V19.9576C22.8871 17.7347 21.1894 15.9325 19.0915 15.9325H15.7266C15.4887 15.9325 15.189 16.1027 15.0572 16.3125L11.7392 21.2859C11.6073 21.4958 11.3934 21.4958 11.2615 21.2859L7.94349 16.3123C7.81159 16.1024 7.51186 15.9324 7.27404 15.9324H3.90889C1.81457 15.9324 0.113281 17.7347 0.113281 19.9576Z" />
</g>
</svg>



